<?xml version="1.0" encoding="UTF-8"?>
<svg width="16px" height="16px" viewBox="0 0 16 16" version="1.1" xmlns="http://www.w3.org/2000/svg" xmlns:xlink="http://www.w3.org/1999/xlink">
    <!-- Generator: Sketch 63.1 (92452) - https://sketch.com -->
    <title>编组</title>
    <desc>Created with Sketch.</desc>
    <g id="初稿_06.10" stroke="none" stroke-width="1" fill="none" fill-rule="evenodd">
        <g id="首页_07.28" transform="translate(-72.000000, -52.000000)" fill="#666666" fill-rule="nonzero">
            <g id="页签" transform="translate(0.000000, 44.000000)">
                <g id="编组" transform="translate(72.000000, 8.000000)">
                    <path d="M14.5588235,12.0526316 C15.2897886,12.0526316 15.8823529,12.5003468 15.8823529,13.0526316 C15.8823529,13.6049163 15.2897886,14.0526316 14.5588235,14.0526316 L1.32352941,14.0526316 C0.592564302,14.0526316 0,13.6049163 0,13.0526316 C0,12.5003468 0.592564302,12.0526316 1.32352941,12.0526316 L14.5588235,12.0526316 Z M14.5588235,6.52631579 C15.2897886,6.52631579 15.8823529,6.97403104 15.8823529,7.52631579 C15.8823529,8.07860054 15.2897886,8.52631579 14.5588235,8.52631579 L1.32352941,8.52631579 C0.592564302,8.52631579 0,8.07860054 0,7.52631579 C0,6.97403104 0.592564302,6.52631579 1.32352941,6.52631579 L14.5588235,6.52631579 Z M14.5588235,1 C15.2897886,1 15.8823529,1.44771526 15.8823529,2 C15.8823529,2.55228474 15.2897886,3 14.5588235,3 L1.32352941,3 C0.592564313,3 2.78912973e-08,2.55228474 2.78912973e-08,2 C2.78912973e-08,1.44771526 0.592564313,1 1.32352941,1 L14.5588235,1 Z" id="形状"></path>
                </g>
            </g>
        </g>
    </g>
</svg>